# AST/ASF file generated using VICON BodyLanguage
# -----------------------------------------------
:version 1.10
:name VICON
:units
  mass 1.0
  length 0.45
  angle deg
:documentation
   .ast/.asf automatically generated from VICON data using
   VICON BodyBuilder and BodyLanguage model FoxedUp or BRILLIANT.MOD
:root
   order TX TY TZ RX RY RZ
   axis XYZ
   position 0 0 0  
   orientation 0 0 0 
:bonedata
  begin
     id 1 
     name lhipjoint
     direction 0.584852 -0.759097 0.285867 
     length 2.43633 
     axis 0 0 0  XYZ
  end
  begin
     id 2 
     name lfemur
     direction 0.34202 -0.939693 0  
     length 7.14704  
     axis 0 0 20  XYZ
    dof rx ry rz
    limits (-160.0 20.0)
           (-70.0 70.0)
           (-60.0 70.0)
  end
  begin
     id 3 
     name ltibia
     direction 0.342022 -0.939692 0   
     length 7.68483   
     axis 0 0 20   XYZ
    dof rx
    limits (-10.0 170.0)
  end
  begin
     id 4 
     name lfoot
     direction 0.0999605 -0.274639 0.956337   
     length 2.40452   
     axis -90 7.62852e-016 20   XYZ
    dof rx rz
    limits (-45.0 90.0)
           (-70.0 20.0)
  end
  begin
     id 5 
     name ltoes
     direction 1.53468e-011 -4.21881e-011 1   
     length 1.19837   
     axis -90 7.62852e-016 20   XYZ
    dof rx
    limits (-90.0 20.0)
  end
  begin
     id 6 
     name rhipjoint
     direction -0.569886 -0.769002 0.289597   
     length 2.40495  
     axis 0 0 0  XYZ 
  end
  begin
     id 7 
     name rfemur
     direction -0.34202 -0.939693 0   
     length 7.45086   
     axis 0 0 -20   XYZ
    dof rx ry rz
    limits (-160.0 20.0)
           (-70.0 70.0)
           (-70.0 60.0)
  end
  begin
     id 8 
     name rtibia
     direction -0.34202 -0.939693 0   
     length 7.76831   
     axis 0 0 -20   XYZ
    dof rx
    limits (-10.0 170.0)
 end
 begin
     id 9 
     name rfoot
     direction -0.0798572 -0.219406 0.97236   
     length 2.35911  
     axis -90 -7.62852e-016 -20   XYZ
    dof rx rz
    limits (-45.0 90.0)
           (-20.0 70.0)
  end
  begin
     id 10 
     name rtoes
     direction -1.53469e-011 -4.21728e-011 1   
     length 1.18261   
     axis -90 -7.62852e-016 -20   XYZ
    dof rx
    limits (-90.0 20.0)
  end
  begin
     id 11 
     name lowerback
     direction 0.0242088 0.999437 0.0232389   
     length 2.1561   
     axis 0 0 0   XYZ
    dof rx ry rz
    limits (-20.0 45.0)
           (-30.0 30.0)
           (-30.0 30.0)
  end
  begin
     id 12 
     name upperback
     direction -0.0356893 0.999013 -0.0264323   
     length 2.14431   
     axis 0 0 0   XYZ
    dof rx ry rz
    limits (-20.0 45.0)
           (-30.0 30.0)
           (-30.0 30.0)
  end
  begin
     id 13 
     name thorax
     direction -0.0472163 0.998194 -0.0371284   
     length 2.16169   
     axis 0 0 0   XYZ
    dof rx ry rz
    limits (-20.0 45.0)
           (-30.0 30.0)
           (-30.0 30.0)
  end
  begin
     id 14 
     name lowerneck
     direction 0.00863244 0.999921 0.00911972   
     length 1.58651   
     axis 0 0 0   XYZ
    dof rx ry rz
    limits (-20.0 45.0)
           (-30.0 30.0)
           (-30.0 30.0)
  end
  begin
     id 15 
     name upperneck
     direction 0.149523 0.979068 -0.138086   
     length 1.57486   
     axis 0 0 0   XYZ
    dof rx ry rz
    limits (-20.0 45.0)
           (-30.0 30.0)
           (-30.0 30.0)
  end
  begin
     id 16
     name head
     direction 0.0445219 0.997708 -0.0509576  
     length 1.6019  
     axis 0 0 0   XYZ
    dof rx ry rz
    limits (-20.0 45.0)
           (-30.0 30.0)
           (-30.0 30.0)
  end
  begin
     id 17 
     name lclavicle
     direction 0.911271 0.381667 -0.154644  
     length 3.80848  
     axis 0 0 0   XYZ
    dof ry rz
    limits (-20.0 10.0)
           (0.0 20.0)
  end
  begin
     id 18 
     name lhumerus
     direction 1 -4.49003e-011 2.1308e-027   
     length 5.19069   
     axis 180 -30 -90   XYZ
    dof rx ry rz
    limits (-60.0 90.0)
           (-90.0 90.0)
           (-90.0 90.0)
  end
  begin
     id 19
     name lradius
     direction 1 -4.48914e-011 4.01554e-027   
     length 3.30016   
     axis 180 -30 -90   XYZ
    dof rx
    limits (-10.0 170.0)
  end
  begin
     id 20
     name lwrist
     direction 1 -4.49003e-011 1.1934e-026   
     length 1.65008   
     axis -8.46377e-015 90 90   XYZ
    dof ry
    limits (-180.0 0.0)
 end
  begin
     id 21 
     name lhand
     direction 1 -4.49034e-011 2.38659e-026   
     length 0.707698   
     axis -1.52313e-014 90 90   XYZ
    dof rx rz
    limits (-90.0 90.0)
           (-45.0 45.0)
  end
  begin
     id 22 
     name lfingers
     direction 1 -4.48691e-011 4.77775e-026   
     length 0.570564   
     axis -3.04623e-014 90 90   XYZ
    dof rx
    limits (0.0 90.0)
  end
  begin
     id 23
     name lthumb
     direction 0.707107 -6.34832e-011 0.707107   
     length 0.819219   
     axis -90 45 -1.62303e-014   XYZ
    dof rx rz
    limits (-45.0 45.0)
           (-45.0 45.0)
  end
  begin
     id 24 
     name rclavicle
     direction -0.815579 0.573708 -0.0754329   
     length 3.54371  
     axis 0 0 0   XYZ 
    dof ry rz
    limits (-10.0 20.0)
           (-20.0 0.0)
  end
  begin
     id 25 
     name rhumerus
     direction -1 -4.48956e-011 3.05351e-028  
     length 5.23924   
     axis 180 30 90   XYZ
    dof rx ry rz
    limits (-90.0 60.0)
           (-90.0 90.0)
           (-90.0 90.0)
  end
  begin
     id 26 
     name rradius
     direction -1 -4.49013e-011 3.53849e-027   
     length 3.32953   
     axis 180 30 90   XYZ
    dof rx
    limits (-10.0 170.0)
  end
  begin
     id 27 
     name rwrist
     direction -1 -4.48901e-011 1.19374e-026   
     length 1.66477   
     axis -8.46377e-015 -90 -90   XYZ
    dof ry
    limits (-180.0 0.0)
  end
  begin
     id 28
     name rhand
     direction -1 -4.48877e-011 2.38764e-026   
     length 0.607414   
     axis -1.52313e-014 -90 -90   XYZ
    dof rx rz
    limits (-90.0 90.0)
           (-45.0 45.0)
  end
  begin
     id 29
     name rfingers
     direction -1 -4.48882e-011 4.77521e-026   
     length 0.489712   
     axis -3.04623e-014 -90 -90   XYZ
    dof rx
    limits (0.0 90.0)
  end
  begin
     id 30
     name rthumb
     direction -0.707107 -6.34974e-011 0.707107   
     length 0.703132   
     axis -90 -45 1.62303e-014   XYZ
    dof rx rz
    limits (-45.0 45.0)
           (-45.0 45.0)
  end
:hierarchy
  begin
    root lhipjoint rhipjoint lowerback
    lhipjoint lfemur
    lfemur ltibia
    ltibia lfoot
    lfoot ltoes
    rhipjoint rfemur
    rfemur rtibia
    rtibia rfoot
    rfoot rtoes
    lowerback upperback
    upperback thorax
    thorax lowerneck lclavicle rclavicle
    lowerneck upperneck
    upperneck head
    lclavicle lhumerus
    lhumerus lradius
    lradius lwrist
    lwrist lhand lthumb
    lhand lfingers
    rclavicle rhumerus
    rhumerus rradius
    rradius rwrist
    rwrist rhand rthumb
    rhand rfingers
  end

#!OML:ASF E:\VariousWalksJay\Project 1\Capture day 1\Session 1\Actor2.ASF
:FULLY-SPECIFIED
:DEGREES
382
root 26.2315 14.5899 49.1263 181.697 -39.7092 -165.428
lowerback 26.2635 1.16616 -0.337849
upperback 18.2691 -2.6988 -7.98547
thorax 5.73961 -2.38261 -8.3172
lowerneck 3.49348 -0.970891 -3.53112
upperneck -11.5789 -0.570565 13.4738
head -3.93999 -1.05647 4.78301
rclavicle -3.49861e-014 4.77083e-014
rhumerus 6.4676 25.8698 -69.0315
rradius 77.7397
rwrist -2.38779
rhand -3.60658 -9.38041
rfingers 7.12502
rthumb 22.1317 -38.1337
lclavicle -3.49861e-014 4.77083e-014
lhumerus 12.5298 -1.69451 49.6929
lradius 71.894
lwrist 7.34143
lhand -4.80738 -7.24701
lfingers 7.12502
lthumb 20.9785 21.6385
rfemur -61.5782 -4.03868 30.9741
rtibia 85.6799
rfoot -11.8901 -7.31626
rtoes -11.5029
lfemur -47.2143 15.3286 -13.3396
ltibia 72.0078
lfoot -36.9451 5.12827
ltoes -2.67544
383
root 26.2038 14.5784 49.0978 181.679 -39.6148 -165.504
lowerback 26.1751 1.13507 -0.56112
upperback 18.3392 -2.8008 -8.00482
thorax 5.85193 -2.46019 -8.19675
lowerneck 3.47106 -0.892823 -3.71899
upperneck -11.5056 -0.48635 13.3726
head -3.92094 -0.993285 4.77758
rclavicle 8.26944e-014 1.65389e-013
rhumerus 6.48292 26.2578 -68.7782
rradius 78.21
rwrist -2.50886
rhand -3.32475 -9.32242
rfingers 7.12502
rthumb 22.4023 -38.0434
lclavicle 8.26944e-014 1.65389e-013
lhumerus 12.7603 -1.43131 49.7725
lradius 71.6121
lwrist 7.09284
lhand -4.50651 -7.31344
lfingers 7.12502
lthumb 21.2675 21.5397
rfemur -62.0173 -3.96199 30.9759
rtibia 86.1657
rfoot -12.1883 -7.33636
rtoes -11.1422
lfemur -46.9561 15.3686 -13.3298
ltibia 72.0689
lfoot -37.1826 5.08457
ltoes -2.41176
384
root 26.1749 14.6285 49.0691 180.99 -39.3271 -165.406
lowerback 26.9592 1.19992 -0.422565
upperback 18.3594 -2.81944 -8.21619
thorax 5.50781 -2.4798 -8.49712
lowerneck 3.61055 -0.872479 -3.44769
upperneck -11.3282 -0.455299 13.3343
head -3.89716 -0.98356 4.71576
rclavicle -6.67916e-014 9.85972e-014
rhumerus 6.09952 26.2174 -69.1934
rradius 78.4989
rwrist -2.41765
rhand -3.37172 -9.55208
rfingers 7.12502
rthumb 22.3572 -38.2785
lclavicle -6.67916e-014 9.85972e-014
lhumerus 13.0349 -1.66158 49.4174
lradius 71.3673
lwrist 7.02343
lhand -4.32334 -7.35022
lfingers 7.12502
lthumb 21.4434 21.483
rfemur -61.3253 -3.5766 31.036
rtibia 86.2431
rfoot -13.4248 -7.46986
rtoes -9.7935
lfemur -45.6412 15.5402 -12.9198
ltibia 71.8278
lfoot -37.551 4.74725
ltoes -2.04782
385
root 26.1465 14.6099 49.037 181.303 -39.2412 -165.481
lowerback 26.4427 1.07042 -0.7062
upperback 18.3953 -2.99599 -8.20378
thorax 5.7644 -2.58556 -8.29537
lowerneck 3.36333 -0.721841 -3.89828
upperneck -11.0996 -0.297688 13.2783
head -3.79749 -0.860993 4.76065
rclavicle 2.54444e-014 -2.38542e-014
rhumerus 6.34665 26.6685 -68.9243
rradius 78.7568
rwrist -2.39798
rhand -2.92639 -9.48123
rfingers 7.12502
rthumb 22.7846 -38.1556
lclavicle 2.54444e-014 -2.38542e-014
lhumerus 13.1459 -1.1983 49.5524
lradius 71.0502
lwrist 6.88539
lhand -3.99917 -7.52454
lfingers 7.12502
lthumb 21.7548 21.2729
rfemur -62.1793 -3.50384 31.1101
rtibia 86.6511
rfoot -12.8513 -7.26989
rtoes -9.90683
lfemur -45.8778 15.7453 -13.1295
ltibia 71.8125
lfoot -37.4417 5.08843
ltoes -2.58114
386
root 26.1179 14.6047 49.0022 181.247 -39.0507 -165.446
lowerback 26.4201 1.09884 -0.51479
upperback 18.339 -2.93203 -8.41744
thorax 5.70949 -2.52395 -8.66554
lowerneck 3.64269 -0.744529 -3.38237
upperneck -11.0525 -0.30789 13.1463
head -3.83485 -0.887641 4.63375
rclavicle -9.22361e-014 -8.11041e-014
rhumerus 5.79301 26.4635 -69.3816
rradius 79.0701
rwrist -2.2907
rhand -2.40164 -9.45288
rfingers 7.12502
rthumb 23.2881 -38.0645
lclavicle -9.22361e-014 -8.11041e-014
lhumerus 13.6056 -1.67253 49.2168
lradius 70.702
lwrist 6.90535
lhand -3.97232 -7.59524
lfingers 7.12502
lthumb 21.7805 21.1992
rfemur -62.6093 -3.31551 31.2515
rtibia 86.8669
rfoot -13.1493 -7.24316
rtoes -11.1929
lfemur -45.5413 15.9115 -12.9807
ltibia 71.693
lfoot -37.5553 4.95177
ltoes -2.5973
